<?xml version="1.0" encoding="utf-8"?>
<!-- Generator: Adobe Illustrator 27.0.1, SVG Export Plug-In . SVG Version: 6.00 Build 0)  -->
<svg version="1.1" id="Layer_1" xmlns="http://www.w3.org/2000/svg" xmlns:xlink="http://www.w3.org/1999/xlink" x="0px" y="0px"
	 viewBox="0 0 320 320" style="enable-background:new 0 0 320 320;" xml:space="preserve">
<style type="text/css">
	.st0{fill:none;stroke:#F9DBB7;stroke-width:2;}
	.st1{fill:none;stroke:#A29491;stroke-width:2;}
	.st2{fill:none;stroke:#9C7048;stroke-width:2;}
	.st3{fill:#452822;}
	.st4{fill:#F3B76E;}
	.st5{fill:#FFFFFF;}
</style>
<g>
	<path vector-effect="non-scaling-stroke" class="st0" d="M87.1,52.8C73.3,63.6,61.9,76.8,52.9,92.2c-0.3,0.5-0.5,1.1-0.4,1.7"/>
	<path vector-effect="non-scaling-stroke" class="st1" d="M52.5,93.8c-0.5,0.2-0.9,0.6-1.2,1.2c-6,10.3-10.3,21.3-12.8,33"/>
	<path vector-effect="non-scaling-stroke" class="st0" d="M38.5,128c-2.6,5.6-3,12.7-3.4,18.8c-0.1,0.9-0.4,1.8-1,2.5
		c-2.3,2.7-4.6,5.8-6.8,9.3c-13.5,20.7-17.8,43.2-13,67.4"/>
	<path vector-effect="non-scaling-stroke" class="st1" d="M14.2,226.1l3.3,11.9"/>
	<path vector-effect="non-scaling-stroke" class="st0" d="M17.5,237.9c1.8,8.3,5.5,13.6,10.7,20.7C41.6,277.3,59.5,289.8,82,295
		c6.3,1.4,13.1,2.1,20.4,2.1"/>
	<path vector-effect="non-scaling-stroke" class="st1" d="M102.4,297.1c17.7,0,35.4,0,53.1,0c11.7,0,18.4,0,20-0.1
		c32.4-1.3,60.8-12.5,85.2-33.4c64.2-55.2,62.2-156.9-4.1-209.5c-20.1-16-42.1-25.6-66.1-28.8c-38-5.2-72.5,4-103.4,27.5"/>
	<path vector-effect="non-scaling-stroke" class="st2" d="M102.4,297.1c33.5-50.8,15.9-118.9-39.1-145.7c-1.1-0.6-1.1-0.8,0.2-0.8
		c40.9,1.2,66.4-43.3,45.4-78.2c-5-8.4-12.3-14.9-21.7-19.6"/>
	<path vector-effect="non-scaling-stroke" class="st2" d="M17.5,237.9c9,0.8,17.3,1.3,26.6-0.5c13.8-2.7,23.3-11.1,23.7-26
		c0.2-8.2-11.1-8.2-11.1-0.9c0,7.6-3.4,12.5-10.2,14.7c-7,2.3-14.4,3-22.3,2.2c-3.1-0.3-6.5-0.8-10-1.4"/>
	<path vector-effect="non-scaling-stroke" class="st2" d="M38.5,128c4.8,6,10.8,8.8,17.8,8.4c10.2-0.5,19-8.2,20.2-18.6
		c0.5-4.2,0-7.9-1.5-11.1c-4.2-9.2-11.7-13.5-22.5-12.9"/>
	<path vector-effect="non-scaling-stroke" class="st1" d="M219.8,176.8c3.6,9.8,5.1,19.9,4.7,30.3c0,0.2,0.2,0.4,0.4,0.4
		c0.1,0,0.1,0,0.2,0c9.9-3.6,18.7-8.9,26.4-16c0.4-0.4,0.3-0.6-0.2-0.6l-11.3,0.1c-2.7,0-4.1-1.4-4.1-4.1l0-28.4
		c0-0.3-0.1-0.7-0.3-0.9c-0.8-1-1.9-1.6-2.5-2.8c-4.9-10.3,11.2-15.6,13.6-5.1c0.7,3-0.3,5.6-2.9,7.7c-0.3,0.3-0.5,0.6-0.5,1.1
		l0,24.5c0,0.3,0.2,0.5,0.5,0.5l14.5,0c0.4,0,0.7-0.2,1-0.5c8.8-11,14.1-23.5,16.1-37.5c0-0.2-0.1-0.3-0.3-0.4c0,0,0,0,0,0l-20.7,0
		c-2.8,0-4.2-1.4-4.2-4.2l0-26.3c0-0.5-0.2-0.9-0.6-1.2c-3.2-2.3-4-6.3-2.1-9.7c3.3-5.9,12.6-4.4,13.6,2.4c0.4,2.9-0.6,5.4-3.1,7.4
		c-0.3,0.2-0.4,0.5-0.4,0.9v22.7c0,0.4,0.2,0.5,0.5,0.5l17.4-0.1c0.4,0,0.6-0.2,0.6-0.6c0.3-15.1-3.6-29.2-11.7-42.2
		c-0.2-0.3-0.5-0.5-0.9-0.5l-25.5,0c-0.2,0-0.2,0.1-0.2,0.2c0,12.9,0,25.1,0,36.5c0,2.8-1.5,4.3-4.5,4.2c-10,0-18.8,0-26.4,0
		c-0.4,0-0.7,0.1-0.9,0.4c-2.4,2.9-5.3,3.8-8.7,2.7c-3.4-1.2-5.4-4.8-4.7-8.3c1.2-5.7,7.8-8.1,12.1-4c0.4,0.4,0.9,0.8,1.3,1.2
		c0.3,0.3,0.7,0.5,1.1,0.5l22.7,0c0.4,0,0.6-0.2,0.6-0.7l0-36.7c0-2,1.6-3.6,3.5-3.6c0,0,0,0,0,0l24,0c0.5,0,0.6-0.2,0.3-0.6
		c-10-11.7-22.3-19.8-37-24.2c-0.1,0-0.2,0-0.3,0.2c0,0,0,0,0,0.1V78c0,1.9-1.6,3.5-3.5,3.5h-23.9c-0.4,0-0.7,0.1-1,0.3
		c-1.1,0.9-1.7,1.9-3,2.5c-6,3.1-12.8-2.9-10.2-9.2c2.2-5.6,9-6.4,12.8-1.7c0.3,0.4,0.8,0.6,1.3,0.6l19.5,0.1c0.3,0,0.5-0.2,0.5-0.5
		l0,0l0-12.7c0-0.3-0.2-0.6-0.6-0.7c-14.7-2.4-28.7-0.9-42.2,4.6c-0.4,0.1-0.5,0.4-0.5,0.8l0,27.3c0,0.4,0.3,0.6,0.6,0.6h21.4
		c0.4,0,0.7-0.2,0.9-0.5c2.7-4.3,8.3-5.6,12-1.7c5.4,5.7-0.2,14.1-7.6,12.2c-1.5-0.4-2.4-1.4-3.6-2.3c-0.3-0.2-0.6-0.3-1-0.3
		c-9,0.1-17.7,0.1-26,0c-2.8,0-4.2-1.4-4.2-4.2c0-9.6,0-18.8,0-27.4c0-0.2-0.2-0.4-0.4-0.4c-0.1,0-0.1,0-0.2,0.1
		c-19.9,11.8-32.4,29-37.3,51.6c-0.1,0.3,0.1,0.5,0.4,0.6c0,0,0.1,0,0.1,0l21.1,0.1c2.8,0,4.2,1.4,4.2,4.2l0,24.5
		c0,0.4,0.2,0.7,0.5,1c2.2,1.4,3.3,3.4,3.5,5.8c0.4,8.2-10.5,10.8-14,3.5c-1.6-3.4-0.4-6.5,2.1-9.1c0.3-0.3,0.5-0.7,0.5-1.2l0-20.8
		c0-0.4-0.2-0.5-0.5-0.5l-18.3,0c-0.5,0-0.7,0.2-0.7,0.7c-0.8,15.5,7.6,31.4,18.8,42.1c0.3,0.3,0.7,0.5,1.2,0.5l18.6,0
		c0.4,0,0.6-0.2,0.6-0.6l0-22.3c0-0.4-0.2-0.8-0.4-1.1c-1.2-1.2-2.4-2.3-2.9-4c-2.7-9.3,10.3-13.7,13.8-5.2c1.1,2.8,0.6,5.9-1.6,8
		c-0.5,0.4-0.9,0.9-1.2,1.4c-0.2,0.3-0.3,0.6-0.3,0.9l0,26.7c0,1.9-1.6,3.5-3.5,3.5c0,0,0,0,0,0l-12.8-0.1c-1,0-1.1,0.2-0.2,0.7
		c8.9,5.1,18.6,7.5,28.9,7c12.6-0.6,25.9-3.7,36.1-10.7C219.2,176.1,219.6,176.2,219.8,176.8"/>
	<path vector-effect="non-scaling-stroke" class="st1" d="M187.2,146.8l0-21c0-0.5,0.1-0.9,0.4-1.2c0.4-0.4,0.7-0.8,1.1-1.2
		c2.6-2.5,2.7-6.5,0.8-9.2c-4.1-6.1-13.8-3-13.5,4.5c0.1,2.3,1.1,4.2,3,5.7c0.4,0.3,0.6,0.7,0.6,1.2v26c0,1.9,1.6,3.5,3.5,3.5
		l24.8,0c0.4,0,0.7,0.1,1,0.4c0.4,0.4,0.8,0.8,1.2,1.2c2.2,2.4,5.9,2.7,8.6,1.2c7.2-3.9,3.7-15-4.6-13.8c-2.1,0.3-3.7,1.3-5,3.1
		c-0.2,0.3-0.5,0.5-0.9,0.5l-20.3,0C187.5,147.6,187.2,147.3,187.2,146.8"/>
	<path vector-effect="non-scaling-stroke" class="st1" d="M65.9,106.6c0-2.3-1.9-4.2-4.2-4.2h0c-2.3,0-4.2,1.9-4.2,4.2l0,0
		c0,2.3,1.9,4.2,4.2,4.2h0C64,110.8,65.9,108.9,65.9,106.6L65.9,106.6"/>
</g>
<path class="st3" d="M102.4,297.1c33.5-50.8,15.9-118.9-39.1-145.7c-1.1-0.6-1.1-0.8,0.2-0.8c40.9,1.2,66.4-43.3,45.4-78.2
	c-5-8.4-12.3-14.9-21.7-19.6c30.9-23.5,65.3-32.7,103.4-27.5c23.9,3.2,46,12.8,66.1,28.8c66.3,52.7,68.4,154.3,4.1,209.5
	c-24.4,21-52.8,32.1-85.2,33.4c-1.6,0.1-8.3,0.1-20,0.1C137.8,297.2,120.2,297.2,102.4,297.1z M219.8,176.8
	c3.6,9.8,5.1,19.9,4.7,30.3c0,0.2,0.2,0.4,0.4,0.4c0.1,0,0.1,0,0.2,0c9.9-3.6,18.7-8.9,26.4-16c0.4-0.4,0.3-0.6-0.2-0.6l-11.3,0.1
	c-2.7,0-4.1-1.4-4.1-4.1l0-28.4c0-0.3-0.1-0.7-0.3-0.9c-0.8-1-1.9-1.6-2.5-2.8c-4.9-10.3,11.2-15.6,13.6-5.1c0.7,3-0.3,5.6-2.9,7.7
	c-0.3,0.3-0.5,0.6-0.5,1.1l0,24.5c0,0.3,0.2,0.5,0.5,0.5l14.5,0c0.4,0,0.7-0.2,1-0.5c8.8-11,14.1-23.5,16.1-37.5
	c0-0.2-0.1-0.3-0.3-0.4c0,0,0,0,0,0l-20.7,0c-2.8,0-4.2-1.4-4.2-4.2l0-26.3c0-0.5-0.2-0.9-0.6-1.2c-3.2-2.3-4-6.3-2.1-9.7
	c3.3-5.9,12.6-4.4,13.6,2.4c0.4,2.9-0.6,5.4-3.1,7.4c-0.3,0.2-0.4,0.5-0.4,0.9v22.7c0,0.4,0.2,0.5,0.5,0.5l17.4-0.1
	c0.4,0,0.6-0.2,0.6-0.6c0.3-15.1-3.6-29.2-11.7-42.2c-0.2-0.3-0.5-0.5-0.9-0.5l-25.5,0c-0.2,0-0.2,0.1-0.2,0.2c0,12.9,0,25.1,0,36.5
	c0,2.8-1.5,4.3-4.5,4.2c-10,0-18.8,0-26.4,0c-0.4,0-0.7,0.1-0.9,0.4c-2.4,2.9-5.3,3.8-8.7,2.7c-3.4-1.2-5.4-4.8-4.7-8.3
	c1.2-5.7,7.8-8.1,12.1-4c0.4,0.4,0.9,0.8,1.3,1.2c0.3,0.3,0.7,0.5,1.1,0.5l22.7,0c0.4,0,0.6-0.2,0.6-0.7l0-36.7c0-2,1.6-3.6,3.5-3.6
	c0,0,0,0,0,0l24,0c0.5,0,0.6-0.2,0.3-0.6c-10-11.7-22.3-19.8-37-24.2c-0.1,0-0.2,0-0.3,0.2c0,0,0,0,0,0.1V78c0,1.9-1.6,3.5-3.5,3.5
	h-23.9c-0.4,0-0.7,0.1-1,0.3c-1.1,0.9-1.7,1.9-3,2.5c-6,3.1-12.8-2.9-10.2-9.2c2.2-5.6,9-6.4,12.8-1.7c0.3,0.4,0.8,0.6,1.3,0.6
	l19.5,0.1c0.3,0,0.5-0.2,0.5-0.5l0,0l0-12.7c0-0.3-0.2-0.6-0.6-0.7c-14.7-2.4-28.7-0.9-42.2,4.6c-0.4,0.1-0.5,0.4-0.5,0.8l0,27.3
	c0,0.4,0.3,0.6,0.6,0.6h21.4c0.4,0,0.7-0.2,0.9-0.5c2.7-4.3,8.3-5.6,12-1.7c5.4,5.7-0.2,14.1-7.6,12.2c-1.5-0.4-2.4-1.4-3.6-2.3
	c-0.3-0.2-0.6-0.3-1-0.3c-9,0.1-17.7,0.1-26,0c-2.8,0-4.2-1.4-4.2-4.2c0-9.6,0-18.8,0-27.4c0-0.2-0.2-0.4-0.4-0.4
	c-0.1,0-0.1,0-0.2,0.1c-19.9,11.8-32.4,29-37.3,51.6c-0.1,0.3,0.1,0.5,0.4,0.6c0,0,0.1,0,0.1,0l21.1,0.1c2.8,0,4.2,1.4,4.2,4.2
	l0,24.5c0,0.4,0.2,0.7,0.5,1c2.2,1.4,3.3,3.4,3.5,5.8c0.4,8.2-10.5,10.8-14,3.5c-1.6-3.4-0.4-6.5,2.1-9.1c0.3-0.3,0.5-0.7,0.5-1.2
	l0-20.8c0-0.4-0.2-0.5-0.5-0.5l-18.3,0c-0.5,0-0.7,0.2-0.7,0.7c-0.8,15.5,7.6,31.4,18.8,42.1c0.3,0.3,0.7,0.5,1.2,0.5l18.6,0
	c0.4,0,0.6-0.2,0.6-0.6l0-22.3c0-0.4-0.2-0.8-0.4-1.1c-1.2-1.2-2.4-2.3-2.9-4c-2.7-9.3,10.3-13.7,13.8-5.2c1.1,2.8,0.6,5.9-1.6,8
	c-0.5,0.4-0.9,0.9-1.2,1.4c-0.2,0.3-0.3,0.6-0.3,0.9l0,26.7c0,1.9-1.6,3.5-3.5,3.5c0,0,0,0,0,0l-12.8-0.1c-1,0-1.1,0.2-0.2,0.7
	c8.9,5.1,18.6,7.5,28.9,7c12.6-0.6,25.9-3.7,36.1-10.7C219.2,176.1,219.6,176.2,219.8,176.8z"/>
<path class="st4" d="M87.1,52.8c9.4,4.7,16.7,11.2,21.7,19.6c21,34.9-4.5,79.5-45.4,78.2c-1.3,0-1.3,0.2-0.2,0.8
	c55,26.9,72.6,95,39.1,145.7c-7.4,0-14.2-0.7-20.4-2.1c-22.5-5.2-40.4-17.7-53.8-36.4c-5.1-7.1-8.9-12.4-10.7-20.7
	c9,0.8,17.3,1.3,26.6-0.5c13.8-2.7,23.3-11.1,23.7-26c0.2-8.2-11.1-8.2-11.1-0.9c0,7.6-3.4,12.5-10.2,14.7c-7,2.3-14.4,3-22.3,2.2
	c-3.1-0.3-6.5-0.8-10-1.4c-4.8-24.2-0.5-46.7,13-67.4c2.3-3.5,4.5-6.6,6.8-9.3c0.6-0.7,0.9-1.6,1-2.5c0.4-6.1,0.8-13.2,3.4-18.8
	c4.8,6,10.8,8.8,17.8,8.4c10.2-0.5,19-8.2,20.2-18.6c0.5-4.2,0-7.9-1.5-11.1c-4.2-9.2-11.7-13.5-22.5-12.9c0-0.6,0.1-1.1,0.4-1.7
	C61.9,76.8,73.3,63.6,87.1,52.8z"/>
<path class="st3" d="M52.5,93.8c10.8-0.6,18.3,3.7,22.5,12.9c1.5,3.2,1.9,6.9,1.5,11.1c-1.2,10.4-10.1,18.1-20.2,18.6
	c-7,0.3-12.9-2.5-17.8-8.4c2.5-11.7,6.8-22.6,12.8-33C51.6,94.5,52,94.1,52.5,93.8z M65.9,106.6c0-2.3-1.9-4.2-4.2-4.2h0
	c-2.3,0-4.2,1.9-4.2,4.2l0,0c0,2.3,1.9,4.2,4.2,4.2h0C64,110.8,65.9,108.9,65.9,106.6L65.9,106.6z"/>
<circle class="st5" cx="61.6" cy="106.6" r="4.2"/>
<path class="st3" d="M188,147.6l20.3,0c0.4,0,0.7-0.2,0.9-0.5c1.3-1.8,3-2.8,5-3.1c8.2-1.2,11.7,9.8,4.6,13.8
	c-2.7,1.5-6.5,1.2-8.6-1.2c-0.4-0.4-0.8-0.8-1.2-1.2c-0.3-0.2-0.6-0.4-1-0.4l-24.8,0c-1.9,0-3.5-1.6-3.5-3.5v-26
	c0-0.5-0.2-0.9-0.6-1.2c-1.9-1.5-2.9-3.4-3-5.7c-0.3-7.5,9.3-10.5,13.5-4.5c1.9,2.8,1.8,6.8-0.8,9.2c-0.4,0.4-0.8,0.8-1.1,1.2
	c-0.3,0.3-0.4,0.7-0.4,1.2l0,21C187.2,147.3,187.5,147.6,188,147.6z"/>
<path class="st3" d="M17.5,237.9l-3.3-11.9c3.5,0.6,6.9,1.1,10,1.4c7.9,0.8,15.3,0,22.3-2.2c6.8-2.2,10.3-7.1,10.2-14.7
	c0-7.3,11.3-7.3,11.1,0.9c-0.4,14.9-9.9,23.3-23.7,26C34.8,239.2,26.6,238.8,17.5,237.9z"/>
</svg>
